<svg width="256.47001953125px" height="75.207470703125px" xmlns="http://www.w3.org/2000/svg" viewBox="121.764990234375 37.3962646484375 256.47001953125 75.207470703125" style="background: rgba(0, 0, 0, 0);" preserveAspectRatio="xMidYMid"><defs><filter id="editing-vr"><feFlood flood-color="#f00" flood-opacity="0.7" result="c1"></feFlood><feFlood flood-color="#00f" flood-opacity="0.7" result="c3"></feFlood><feComposite operator="in" in="c1" in2="SourceAlpha" result="text-c1"></feComposite><feComposite operator="in" in="c3" in2="SourceAlpha" result="text-c3"></feComposite><feOffset in="text-c1" dx="2" dy="-1" result="text1"></feOffset><feOffset in="text-c3" dx="-2" dy="1" result="text3"></feOffset><feBlend in="SourceGraphic" in2="text1" mode="multiply" result="text4"></feBlend><feBlend in="text4" in2="text3" mode="multiply"></feBlend></filter></defs><g filter="url(#editing-vr)"><g transform="translate(163.16000333428383, 87.25)"><path d="M15.23-5.39L15.23-5.39L15.23-5.39Q15.89-4.55 15.89-2.92L15.89-2.92L15.89-2.92Q15.89-1.30 14.65-0.30L14.65-0.30L14.65-0.30Q13.41 0.70 11.24 0.70L11.24 0.70L11.24 0.70Q9.98 0.70 8.02 0.42L8.02 0.42L8.02 0.42Q4.17-0.18 3.06-0.18L3.06-0.18L3.06-0.18Q1.96-0.18 1.51-0.12L1.51-0.12L1.51-0.12Q1.05-0.07 0.32 0L0.32 0L4.55-23.10L12.22-23.10L8.72-3.85L8.72-3.85Q9.17-3.78 9.59-3.78L9.59-3.78L10.47-3.78L10.47-3.78Q13.41-3.78 15.23-5.39ZM25.48 0L17.85 0L22.30-23.10L30.00-23.10L25.48 0ZM34.37 0L30.52 0L34.72-23.10L42.25-23.10L47.70-7.21L50.61-23.10L54.50-23.07L50.23 0L42.21 0L37.17-15.30L34.37 0ZM78.09-14.53L78.09-14.53L78.09-14.53Q78.09 0.39 61.92 0.39L61.92 0.39L61.92 0.39Q59.33 0.39 55.06-0.25L55.06-0.25L58.98-20.93L58.98-20.93Q59.26-22.33 59.43-23.14L59.43-23.14L59.43-23.14Q64.75-23.52 67.11-23.52L67.11-23.52L67.11-23.52Q69.48-23.52 71.65-23.03L71.65-23.03L71.65-23.03Q73.82-22.54 75.25-21.46L75.25-21.46L75.25-21.46Q78.09-19.32 78.09-14.53ZM70.88-15.82L70.88-15.82L70.88-15.82Q70.88-21.04 67.13-21.04L67.13-21.04L66.78-21.04L66.78-21.04Q66.61-21.04 66.43-21.00L66.43-21.00L62.83-2.21L62.83-2.21Q62.97-2.14 63.11-2.14L63.11-2.14L63.39-2.14L63.39-2.14Q64.68-2.14 66.03-2.94L66.03-2.94L66.03-2.94Q67.38-3.75 68.43-5.39L68.43-5.39L68.43-5.39Q70.88-9.21 70.88-15.82ZM94.99 0.70L94.99 0.70L94.99 0.70Q90.51 0.70 90.09-5.67L90.09-5.67L84.07-5.67L84.07-5.67Q83.37-4.06 82.88-2.66L82.88-2.66L81.97 0L77.07 0L88.09-23.10L95.62-23.10L97.09-6.09L97.09-6.09Q97.44-2.42 98.84-1.33L98.84-1.33L98.84-1.33Q97.83 0.70 94.99 0.70ZM87.08-12.67L85.16-8.23L89.98-8.23L89.56-17.22L89.56-18.17L87.08-12.67ZM123.03-5.39L123.03-5.39L123.03-5.39Q123.69-4.55 123.69-3.19L123.69-3.19L123.69-3.19Q123.69-1.30 122.29-0.30L122.29-0.30L122.29-0.30Q120.89 0.70 118.69 0.70L118.69 0.70L118.69 0.70Q117.43 0.70 115.50 0.42L115.50 0.42L115.50 0.42Q111.72-0.18 110.57-0.18L110.57-0.18L110.57-0.18Q109.41-0.18 108.96-0.12L108.96-0.12L108.96-0.12Q108.50-0.07 107.77 0L107.77 0L112.07-23.10L127.16-23.10L127.16-23.10Q127.16-20.97 126.12-19.85L126.12-19.85L126.12-19.85Q125.09-18.73 123.06-18.73L123.06-18.73L123.06-18.73Q121.03-18.73 118.97-19.67L118.97-19.67L117.88-13.55L124.11-13.55L124.11-13.55Q124.11-11.69 123.20-10.66L123.20-10.66L123.20-10.66Q122.29-9.63 120.77-9.63L120.77-9.63L120.77-9.63Q119.25-9.63 118.30-9.98L118.30-9.98L118.30-9.98Q117.36-10.33 117.25-10.43L117.25-10.43L115.99-3.82L115.99-3.82Q116.83-3.71 118.41-3.71L118.41-3.71L118.41-3.71Q121.10-3.71 123.03-5.39ZM130.52 0L126.67 0L130.87-23.10L138.39-23.10L143.85-7.21L146.76-23.10L150.64-23.07L146.37 0L138.36 0L133.32-15.30L130.52 0ZM165.69-11.27L172.76-11.90L172.76-11.90Q170.24-6.37 170.24 0.04L170.24 0.04L170.24 0.04Q169.30 0.70 167.91 0.70L167.91 0.70L167.91 0.70Q166.53 0.70 165.66 0.05L165.66 0.05L165.66 0.05Q164.78-0.60 164.61-1.26L164.61-1.26L164.61-1.26Q163.73-0.35 162.31 0.18L162.31 0.18L162.31 0.18Q160.90 0.70 159.39 0.70L159.39 0.70L159.39 0.70Q157.89 0.70 156.57 0.21L156.57 0.21L156.57 0.21Q155.26-0.28 154.25-1.37L154.25-1.37L154.25-1.37Q152.01-3.75 152.01-8.26L152.01-8.26L152.01-8.26Q152.01-15.26 155.75-19.46L155.75-19.46L155.75-19.46Q159.60-23.80 166.43-23.80L166.43-23.80L166.43-23.80Q171.15-23.80 172.83-21.35L172.83-21.35L172.83-21.35Q173.36-20.58 173.36-19.65L173.36-19.65L173.36-19.65Q173.36-18.73 172.95-17.94L172.95-17.94L172.95-17.94Q172.55-17.15 171.92-16.52L171.92-16.52L171.92-16.52Q170.42-15.12 168.56-15.12L168.56-15.12L168.56-15.12Q167.83-15.12 167.13-15.37L167.13-15.37L167.13-15.37Q167.27-16.42 167.27-17.64L167.27-17.64L167.27-17.64Q167.27-18.87 167.18-19.43L167.18-19.43L167.18-19.43Q167.09-19.99 166.88-20.44L166.88-20.44L166.88-20.44Q166.43-21.39 165.43-21.39L165.43-21.39L165.43-21.39Q164.43-21.39 163.33-20.32L163.33-20.32L163.33-20.32Q162.23-19.25 161.35-17.50L161.35-17.50L161.35-17.50Q159.43-13.58 159.43-8.86L159.43-8.86L159.43-8.86Q159.43-6.69 160.27-5.15L160.27-5.15L160.27-5.15Q161.18-3.47 162.79-3.47L162.79-3.47L162.79-3.47Q163.35-3.47 163.85-3.75L163.85-3.75L163.85-3.75Q164.36-4.03 164.57-4.24L164.57-4.24L165.69-11.27Z" fill="#444"></path></g></g><style>text {
  font-size: 64px;
  font-family: Arial Black;
  dominant-baseline: central;
  text-anchor: middle;
}</style></svg>